<svg xmlns="http://www.w3.org/2000/svg" width="16" height="16" viewBox="0 0 16 16">
  <path id="Path_164546" data-name="Path 164546" d="M108-849.661l2.207,1.671a.381.381,0,0,0,.461.01.33.33,0,0,0,.143-.42l-.836-2.764,2.156-1.533a.358.358,0,0,0,.144-.441.362.362,0,0,0-.371-.264h-2.639l-.9-2.9a.364.364,0,0,0-.367-.27.365.365,0,0,0-.368.27l-.9,2.9h-2.639a.362.362,0,0,0-.371.264.358.358,0,0,0,.144.441l2.156,1.533-.836,2.764a.33.33,0,0,0,.143.42.381.381,0,0,0,.461-.01ZM108-844a7.794,7.794,0,0,1-3.12-.63,8.082,8.082,0,0,1-2.541-1.71,8.08,8.08,0,0,1-1.711-2.54A7.786,7.786,0,0,1,100-852a7.794,7.794,0,0,1,.63-3.12,8.081,8.081,0,0,1,1.71-2.541,8.079,8.079,0,0,1,2.54-1.711A7.786,7.786,0,0,1,108-860a7.794,7.794,0,0,1,3.12.63,8.081,8.081,0,0,1,2.541,1.71,8.079,8.079,0,0,1,1.711,2.54A7.786,7.786,0,0,1,116-852a7.794,7.794,0,0,1-.63,3.12,8.08,8.08,0,0,1-1.71,2.541,8.08,8.08,0,0,1-2.54,1.711A7.787,7.787,0,0,1,108-844Z" transform="translate(-100 860)" fill="#2563eb"/>
</svg>
